<svg xmlns="http://www.w3.org/2000/svg" width="920" height="470" viewBox="0 0 920 470" role="img" aria-labelledby="title desc">
  <title id="title">AEC Model Bridge release download history</title>
  <desc id="desc">Current GitHub release downloads by release and cumulative daily history.</desc>
  <rect width="920" height="470" rx="14" fill="#0F172A"/>
  <text x="42" y="48" fill="#F8FAFC" font-family="Segoe UI,Arial,sans-serif" font-size="24" font-weight="600">GitHub release downloads</text>
  <text x="42" y="75" fill="#94A3B8" font-family="Segoe UI,Arial,sans-serif" font-size="13">Updated 2026-06-11 UTC. Source: GitHub release asset API.</text>
  <rect x="42" y="98" width="188" height="66" rx="8" fill="#1E293B" stroke="#334155"/>
  <text x="58" y="121" fill="#94A3B8" font-family="Segoe UI,Arial,sans-serif" font-size="11" font-weight="600">TOTAL</text>
  <text x="58" y="151" fill="#60A5FA" font-family="Segoe UI,Arial,sans-serif" font-size="24" font-weight="700">49</text>
  <rect x="258" y="98" width="188" height="66" rx="8" fill="#1E293B" stroke="#334155"/>
  <text x="274" y="121" fill="#94A3B8" font-family="Segoe UI,Arial,sans-serif" font-size="11" font-weight="600">LAST 7 DAYS</text>
  <text x="274" y="151" fill="#2DD4BF" font-family="Segoe UI,Arial,sans-serif" font-size="24" font-weight="700">tracking</text>
  <rect x="474" y="98" width="188" height="66" rx="8" fill="#1E293B" stroke="#334155"/>
  <text x="490" y="121" fill="#94A3B8" font-family="Segoe UI,Arial,sans-serif" font-size="11" font-weight="600">LAST 30 DAYS</text>
  <text x="490" y="151" fill="#C4B5FD" font-family="Segoe UI,Arial,sans-serif" font-size="24" font-weight="700">tracking</text>
  <rect x="690" y="98" width="188" height="66" rx="8" fill="#1E293B" stroke="#334155"/>
  <text x="706" y="121" fill="#94A3B8" font-family="Segoe UI,Arial,sans-serif" font-size="11" font-weight="600">LATEST RELEASE</text>
  <text x="706" y="151" fill="#FBBF24" font-family="Segoe UI,Arial,sans-serif" font-size="24" font-weight="700">1</text>
  <text x="42" y="188" fill="#E2E8F0" font-family="Segoe UI,Arial,sans-serif" font-size="14" font-weight="600">Downloads by release</text>
  <text x="46" y="204" fill="#CBD5E1" font-family="Segoe UI,Arial,sans-serif" font-size="12">v1.0.1</text>
  <rect x="46" y="210" width="360" height="10" rx="5" fill="#1E293B"/>
  <rect x="46" y="210" width="8" height="10" rx="5" fill="#3B82F6"/>
  <text x="416" y="219" fill="#F8FAFC" font-family="Segoe UI,Arial,sans-serif" font-size="12" font-weight="600">1</text>
  <text x="46" y="243" fill="#CBD5E1" font-family="Segoe UI,Arial,sans-serif" font-size="12">v1.0.0</text>
  <rect x="46" y="249" width="360" height="10" rx="5" fill="#1E293B"/>
  <rect x="46" y="249" width="0" height="10" rx="5" fill="#3B82F6"/>
  <text x="416" y="258" fill="#F8FAFC" font-family="Segoe UI,Arial,sans-serif" font-size="12" font-weight="600">0</text>
  <text x="46" y="282" fill="#CBD5E1" font-family="Segoe UI,Arial,sans-serif" font-size="12">v0.1.1</text>
  <rect x="46" y="288" width="360" height="10" rx="5" fill="#1E293B"/>
  <rect x="46" y="288" width="360" height="10" rx="5" fill="#3B82F6"/>
  <text x="416" y="297" fill="#F8FAFC" font-family="Segoe UI,Arial,sans-serif" font-size="12" font-weight="600">48</text>
  <text x="46" y="321" fill="#CBD5E1" font-family="Segoe UI,Arial,sans-serif" font-size="12">v0.1.0</text>
  <rect x="46" y="327" width="360" height="10" rx="5" fill="#1E293B"/>
  <rect x="46" y="327" width="0" height="10" rx="5" fill="#3B82F6"/>
  <text x="416" y="336" fill="#F8FAFC" font-family="Segoe UI,Arial,sans-serif" font-size="12" font-weight="600">0</text>
  <text x="496" y="188" fill="#E2E8F0" font-family="Segoe UI,Arial,sans-serif" font-size="14" font-weight="600">Cumulative daily history</text>
  <rect x="500" y="190" width="374" height="205" rx="8" fill="#111C2F" stroke="#334155"/>
  <text x="687" y="274" text-anchor="middle" fill="#E2E8F0" font-family="Segoe UI,Arial,sans-serif" font-size="15" font-weight="600">Daily tracking has started</text>
  <text x="687" y="301" text-anchor="middle" fill="#94A3B8" font-family="Segoe UI,Arial,sans-serif" font-size="12">First snapshot: 11 Jun 2026</text>
  <text x="687" y="325" text-anchor="middle" fill="#94A3B8" font-family="Segoe UI,Arial,sans-serif" font-size="12">7-day and 30-day changes populate automatically.</text>
  <text x="42" y="441" fill="#64748B" font-family="Segoe UI,Arial,sans-serif" font-size="11">Counts include GitHub release assets only. Source archives and repository clones are not release downloads.</text>
</svg>
