<svg xmlns="http://www.w3.org/2000/svg" viewBox="0 0 96 96" role="img" aria-label="AEC Model Bridge">
  <rect width="96" height="96" rx="20" fill="#111923"/>
  <g stroke="#111923" stroke-width="2.5" stroke-linejoin="round">
    <polygon fill="#1CB5CA" points="48,16 76,32 48,48 20,32"/>
    <polygon fill="#FFFFFF" points="20,32 48,48 48,80 20,64"/>
    <polygon fill="#AEBCCB" points="48,48 76,32 76,64 48,80"/>
  </g>
  <path fill="#111923" transform="matrix(28,16,0,32,20,32)" d="M0.24,1.02 V0.66 A0.26,0.26 0 0 1 0.76,0.66 V1.02 Z"/>
  <path fill="#111923" transform="matrix(28,-16,0,32,48,48)" d="M0.24,1.02 V0.66 A0.26,0.26 0 0 1 0.76,0.66 V1.02 Z"/>
</svg>
