<svg xmlns="http://www.w3.org/2000/svg" viewBox="0 0 1600 500" width="1600" height="500" role="img" aria-labelledby="t d" font-family="Inter, 'Helvetica Neue', Arial, sans-serif">
<title id="t">Inspect, Propose, Approve, Verify</title><desc id="d">Four steps: inspect finds empty Mark values, propose drafts a change table, approve is a human decision, verify reads the values back. Example values are illustrative.</desc>
<rect id="background" width="1600" height="500" fill="#F2F5F8"/>
<circle cx="100" cy="64" r="20" fill="#1CB5CA"/><text x="100" y="72" font-size="24" font-weight="700" fill="#0B1118" text-anchor="middle">1</text><text x="132" y="77" font-size="38" font-weight="700" fill="#18202C">Inspect</text><rect x="80" y="118" width="312" height="280" rx="14" fill="#FFFFFF" stroke="#D3DAE3" stroke-width="2"/><text x="80" y="440" font-size="28" font-weight="500" fill="#5B6676">Find empty values</text><line x1="404" y1="258" x2="440" y2="258" stroke="#5B6676" stroke-width="3" stroke-linecap="round" /><path d="M430 249 L444 258 L430 267" fill="none" stroke="#5B6676" stroke-width="3" stroke-linecap="round" stroke-linejoin="round"/><circle cx="476" cy="64" r="20" fill="#1CB5CA"/><text x="476" y="72" font-size="24" font-weight="700" fill="#0B1118" text-anchor="middle">2</text><text x="508" y="77" font-size="38" font-weight="700" fill="#18202C">Propose</text><rect x="456" y="118" width="312" height="280" rx="14" fill="#FFFFFF" stroke="#D3DAE3" stroke-width="2"/><text x="456" y="440" font-size="28" font-weight="500" fill="#5B6676">Draft a change table</text><line x1="780" y1="258" x2="816" y2="258" stroke="#5B6676" stroke-width="3" stroke-linecap="round" /><path d="M806 249 L820 258 L806 267" fill="none" stroke="#5B6676" stroke-width="3" stroke-linecap="round" stroke-linejoin="round"/><circle cx="852" cy="64" r="20" fill="#1CB5CA"/><text x="852" y="72" font-size="24" font-weight="700" fill="#0B1118" text-anchor="middle">3</text><text x="884" y="77" font-size="38" font-weight="700" fill="#18202C">Approve</text><rect x="832" y="118" width="312" height="280" rx="14" fill="#FFFFFF" stroke="#1CB5CA" stroke-width="2"/><text x="832" y="440" font-size="28" font-weight="500" fill="#5B6676">A person decides</text><line x1="1156" y1="258" x2="1192" y2="258" stroke="#5B6676" stroke-width="3" stroke-linecap="round" /><path d="M1182 249 L1196 258 L1182 267" fill="none" stroke="#5B6676" stroke-width="3" stroke-linecap="round" stroke-linejoin="round"/><circle cx="1228" cy="64" r="20" fill="#1CB5CA"/><text x="1228" y="72" font-size="24" font-weight="700" fill="#0B1118" text-anchor="middle">4</text><text x="1260" y="77" font-size="38" font-weight="700" fill="#18202C">Verify</text><rect x="1208" y="118" width="312" height="280" rx="14" fill="#FFFFFF" stroke="#D3DAE3" stroke-width="2"/><text x="1208" y="440" font-size="28" font-weight="500" fill="#5B6676">Re-read and compare</text><text id="footnote" x="80" y="478" font-size="22" font-weight="500" fill="#5B6676">Example values are illustrative.</text><text x="104" y="164" font-size="24" font-weight="600" fill="#5B6676">Door · Mark</text><text x="106" y="211" font-size="24" font-weight="500" fill="#18202C">Door 0415</text><text x="366" y="211" font-size="24" font-weight="500" fill="#5B6676" text-anchor="end">D-101</text><text x="106" y="261" font-size="24" font-weight="500" fill="#18202C">Door 0416</text><text x="366" y="261" font-size="24" font-weight="500" fill="#5B6676" text-anchor="end">D-102</text><rect x="94" y="282" width="284" height="42" rx="6" fill="rgba(164,95,11,0.12)" stroke="#A45F0B" stroke-width="1.5" stroke-dasharray="5 4"/><text x="106" y="311" font-size="24" font-weight="500" fill="#18202C">Door 0417</text><text x="366" y="311" font-size="24" font-weight="600" fill="#A45F0B" text-anchor="end">empty</text><rect x="94" y="332" width="284" height="42" rx="6" fill="rgba(164,95,11,0.12)" stroke="#A45F0B" stroke-width="1.5" stroke-dasharray="5 4"/><text x="106" y="361" font-size="24" font-weight="500" fill="#18202C">Door 0418</text><text x="366" y="361" font-size="24" font-weight="600" fill="#A45F0B" text-anchor="end">empty</text><text x="480" y="164" font-size="24" font-weight="600" fill="#5B6676">Proposed changes</text><rect x="470" y="180" width="284" height="40" rx="6" fill="#E9EEF4"/><text x="482" y="207" font-size="22" font-weight="600" fill="#5B6676">Door</text><text x="568" y="207" font-size="22" font-weight="600" fill="#5B6676">Before</text><text x="742" y="207" font-size="22" font-weight="600" fill="#5B6676" text-anchor="end">After</text><text x="482" y="263" font-size="26" font-weight="500" fill="#18202C">0417</text><text x="568" y="263" font-size="24" font-weight="500" fill="#A45F0B">empty</text><text x="742" y="264" font-size="28" font-weight="700" fill="#046B80" text-anchor="end">D-103</text><line x1="470" y1="282" x2="754" y2="282" stroke="#D3DAE3" stroke-width="1.5" stroke-linecap="round" /><text x="482" y="319" font-size="26" font-weight="500" fill="#18202C">0418</text><text x="568" y="319" font-size="24" font-weight="500" fill="#A45F0B">empty</text><text x="742" y="320" font-size="28" font-weight="700" fill="#046B80" text-anchor="end">D-104</text><line x1="470" y1="338" x2="754" y2="338" stroke="#D3DAE3" stroke-width="1.5" stroke-linecap="round" /><rect x="480" y="342" width="266" height="36" rx="18" fill="#E9EEF4" stroke="#5B6676" stroke-width="1.5"/><text x="496" y="367.7" font-size="22" font-weight="600" fill="#5B6676">Draft · not applied</text><circle cx="878" cy="170" r="14" fill="none" stroke="#18202C" stroke-width="3"/><path d="M852 214 C852 188 904 188 904 214" fill="none" stroke="#18202C" stroke-width="3" stroke-linecap="round"/><text x="924" y="178" font-size="26" font-weight="600" fill="#18202C">Reviewer</text><text x="856" y="256" font-size="28" font-weight="600" fill="#18202C">2 changes to review</text><rect x="856" y="276" width="241" height="36" rx="18" fill="rgba(109,63,184,0.12)" stroke="#6D3FB8" stroke-width="1.5"/><text x="872" y="301.7" font-size="22" font-weight="600" fill="#6D3FB8">Awaiting decision</text><rect x="856" y="326" width="150" height="52" rx="10" fill="#1CB5CA"/><text x="931" y="361" font-size="26" font-weight="700" fill="#0B1118" text-anchor="middle">Approve</text><rect x="1020" y="326" width="100" height="52" rx="10" fill="none" stroke="#5B6676" stroke-width="2"/><text x="1070" y="361" font-size="26" font-weight="600" fill="#18202C" text-anchor="middle">Reject</text><text x="1232" y="164" font-size="24" font-weight="600" fill="#5B6676">Read back values</text><text x="1234" y="223" font-size="26" font-weight="500" fill="#18202C">0417</text><text x="1326" y="224" font-size="28" font-weight="700" fill="#18202C">D-103</text><circle cx="1478" cy="214" r="15" fill="#127A4B"/><path d="M1471.7 214.3 L1476.5 219.1 L1484.9 208.9" fill="none" stroke="#FFFFFF" stroke-width="3" stroke-linecap="round" stroke-linejoin="round"/><line x1="1222" y1="242" x2="1506" y2="242" stroke="#D3DAE3" stroke-width="1.5" stroke-linecap="round" /><text x="1234" y="279" font-size="26" font-weight="500" fill="#18202C">0418</text><text x="1326" y="280" font-size="28" font-weight="700" fill="#18202C">D-104</text><circle cx="1478" cy="270" r="15" fill="#127A4B"/><path d="M1471.7 270.3 L1476.5 275.1 L1484.9 264.9" fill="none" stroke="#FFFFFF" stroke-width="3" stroke-linecap="round" stroke-linejoin="round"/><line x1="1222" y1="298" x2="1506" y2="298" stroke="#D3DAE3" stroke-width="1.5" stroke-linecap="round" /><rect x="1232" y="342" width="180" height="36" rx="18" fill="rgba(18,122,75,0.12)" stroke="#127A4B" stroke-width="1.5"/><text x="1248" y="367.7" font-size="22" font-weight="600" fill="#127A4B">2 of 2 match</text>
</svg>
